<?xml version="1.0" encoding="UTF-8"?>
<svg width="166px" height="20px" viewBox="0 0 166 20" version="1.1" xmlns="http://www.w3.org/2000/svg" xmlns:xlink="http://www.w3.org/1999/xlink">
    <title>Logo</title>
    <g id="Food-Blog" stroke="none" stroke-width="1" fill="none" fill-rule="evenodd">
        <g id="01-The-Good-Life---Home" transform="translate(-518.000000, -48.000000)" fill="#A78F79">
            <g id="Nav" transform="translate(259.000000, 48.000000)">
                <path d="M264.8,4.168 L259.328,4.168 L259.64,2.008 L265.136,2.008 L267.44,2.008 L272.888,2.008 L272.576,4.168 L267.104,4.168 L265.04,19 L262.736,19 L264.8,4.168 Z M275.952,0.856 L278.112,0.856 L276.912,9.376 L276.96,9.376 C277.328002,8.76799696 277.871996,8.27600188 278.592,7.9 C279.312004,7.52399812 280.111996,7.336 280.992,7.336 C281.536003,7.336 282.047998,7.41999916 282.528,7.588 C283.008002,7.75600084 283.411998,8.01599824 283.74,8.368 C284.068002,8.72000176 284.303999,9.17199724 284.448,9.724 C284.592001,10.2760028 284.608001,10.9279962 284.496,11.68 L283.488,19 L281.328,19 L282.264,12.28 C282.328,11.7519974 282.316,11.3000019 282.228,10.924 C282.14,10.5479981 281.996001,10.2440012 281.796,10.012 C281.595999,9.77999884 281.344002,9.61200052 281.04,9.508 C280.735998,9.40399948 280.416002,9.352 280.08,9.352 C279.631998,9.352 279.204002,9.42399928 278.796,9.568 C278.387998,9.71200072 278.020002,9.93999844 277.692,10.252 C277.363998,10.5640016 277.088001,10.9599976 276.864,11.44 C276.639999,11.9200024 276.48,12.4879967 276.384,13.144 L275.568,19 L273.408,19 L275.952,0.856 Z M290.056,14.104 C289.992,14.6000025 290.039999,15.051998 290.2,15.46 C290.360001,15.868002 290.595998,16.2159986 290.908,16.504 C291.220002,16.7920014 291.595998,17.0159992 292.036,17.176 C292.476002,17.3360008 292.943998,17.416 293.44,17.416 C294.112003,17.416 294.715997,17.2600016 295.252,16.948 C295.788003,16.6359984 296.303998,16.2240026 296.8,15.712 L298.24,16.96 C296.831993,18.5120078 295.048011,19.288 292.888,19.288 C291.991996,19.288 291.204003,19.1360015 290.524,18.832 C289.843997,18.5279985 289.288002,18.1080027 288.856,17.572 C288.423998,17.0359973 288.120001,16.4040036 287.944,15.676 C287.767999,14.9479964 287.743999,14.1600042 287.872,13.312 C287.984001,12.4639958 288.239998,11.6760036 288.64,10.948 C289.040002,10.2199964 289.539997,9.58800268 290.14,9.052 C290.740003,8.51599732 291.419996,8.09600152 292.18,7.792 C292.940004,7.48799848 293.743996,7.336 294.592,7.336 C295.600005,7.336 296.427997,7.51199824 297.076,7.864 C297.724003,8.21600176 298.231998,8.67599716 298.6,9.244 C298.968002,9.81200284 299.2,10.4519964 299.296,11.164 C299.392,11.8760036 299.392,12.5999963 299.296,13.336 L299.176,14.104 L290.056,14.104 Z M297.112,12.376 C297.16,11.8959976 297.144,11.456002 297.064,11.056 C296.984,10.655998 296.832001,10.3080015 296.608,10.012 C296.383999,9.71599852 296.080002,9.48400084 295.696,9.316 C295.311998,9.14799916 294.848003,9.064 294.304,9.064 C293.775997,9.064 293.280002,9.163999 292.816,9.364 C292.351998,9.564001 291.940002,9.8239984 291.58,10.144 C291.219998,10.4640016 290.928001,10.819998 290.704,11.212 C290.479999,11.604002 290.344,11.9919981 290.296,12.376 L297.112,12.376 Z M323.832,9.496 L326.112,9.496 L324.936,17.872 C324.487998,18.1280013 323.984003,18.351999 323.424,18.544 C322.863997,18.736001 322.292003,18.8999993 321.708,19.036 C321.123997,19.1720007 320.536003,19.2719997 319.944,19.336 C319.351997,19.4000003 318.800003,19.432 318.288,19.432 C316.847993,19.432 315.596005,19.1920024 314.532,18.712 C313.467995,18.2319976 312.608003,17.5840041 311.952,16.768 C311.295997,15.9519959 310.836001,15.0040054 310.572,13.924 C310.307999,12.8439946 310.263999,11.704006 310.44,10.504 C310.616001,9.23999368 310.999997,8.06400544 311.592,6.976 C312.184003,5.88799456 312.927996,4.944004 313.824,4.144 C314.720004,3.343996 315.743994,2.71600228 316.896,2.26 C318.048006,1.80399772 319.271994,1.576 320.568,1.576 C322.120008,1.576 323.371995,1.77199804 324.324,2.164 C325.276005,2.55600196 326.031997,3.09599656 326.592,3.784 L324.696,5.536 C324.087997,4.86399664 323.412004,4.39600132 322.668,4.132 C321.923996,3.86799868 321.120004,3.736 320.256,3.736 C319.279995,3.736 318.372004,3.9159982 317.532,4.276 C316.691996,4.6360018 315.952003,5.11999696 315.312,5.728 C314.671997,6.33600304 314.140002,7.05199588 313.716,7.876 C313.291998,8.70000412 313.016001,9.57599536 312.888,10.504 C312.759999,11.4640048 312.807999,12.3559959 313.032,13.18 C313.256001,14.0040041 313.619997,14.719997 314.124,15.328 C314.628003,15.936003 315.255996,16.4119983 316.008,16.756 C316.760004,17.1000017 317.607995,17.272 318.552,17.272 C319.368004,17.272 320.147996,17.1960008 320.892,17.044 C321.636004,16.8919992 322.287997,16.6720014 322.848,16.384 L323.52,11.656 L319.752,11.656 L320.04,9.496 L323.832,9.496 Z M331.984,13.312 C331.904,13.8880029 331.915999,14.4199976 332.02,14.908 C332.124001,15.3960024 332.311999,15.8119983 332.584,16.156 C332.856001,16.5000017 333.211998,16.771999 333.652,16.972 C334.092002,17.172001 334.599997,17.272 335.176,17.272 C335.752003,17.272 336.283998,17.172001 336.772,16.972 C337.260002,16.771999 337.687998,16.5000017 338.056,16.156 C338.424002,15.8119983 338.731999,15.3960024 338.98,14.908 C339.228001,14.4199976 339.392,13.8880029 339.472,13.312 C339.552,12.7359971 339.540001,12.2040024 339.436,11.716 C339.331999,11.2279976 339.140001,10.8120017 338.86,10.468 C338.579999,10.1239983 338.224002,9.852001 337.792,9.652 C337.359998,9.451999 336.856003,9.352 336.28,9.352 C335.703997,9.352 335.172002,9.451999 334.684,9.652 C334.195998,9.852001 333.764002,10.1239983 333.388,10.468 C333.011998,10.8120017 332.704001,11.2279976 332.464,11.716 C332.223999,12.2040024 332.064,12.7359971 331.984,13.312 L331.984,13.312 Z M329.68,13.312 C329.792001,12.4799958 330.055998,11.7040036 330.472,10.984 C330.888002,10.2639964 331.407997,9.63200272 332.032,9.088 C332.656003,8.54399728 333.355996,8.11600156 334.132,7.804 C334.908004,7.49199844 335.719996,7.336 336.568,7.336 C337.416004,7.336 338.183997,7.49199844 338.872,7.804 C339.560003,8.11600156 340.139998,8.54399728 340.612,9.088 C341.084002,9.63200272 341.423999,10.2639964 341.632,10.984 C341.840001,11.7040036 341.888001,12.4799958 341.776,13.312 C341.647999,14.1440042 341.380002,14.9239964 340.972,15.652 C340.563998,16.3800036 340.048003,17.0119973 339.424,17.548 C338.799997,18.0840027 338.100004,18.5079984 337.324,18.82 C336.547996,19.1320016 335.736004,19.288 334.888,19.288 C334.039996,19.288 333.268003,19.1320016 332.572,18.82 C331.875997,18.5079984 331.296002,18.0840027 330.832,17.548 C330.367998,17.0119973 330.028001,16.3800036 329.812,15.652 C329.595999,14.9239964 329.551999,14.1440042 329.68,13.312 L329.68,13.312 Z M347.24,13.312 C347.16,13.8880029 347.171999,14.4199976 347.276,14.908 C347.380001,15.3960024 347.567999,15.8119983 347.84,16.156 C348.112001,16.5000017 348.467998,16.771999 348.908,16.972 C349.348002,17.172001 349.855997,17.272 350.432,17.272 C351.008003,17.272 351.539998,17.172001 352.028,16.972 C352.516002,16.771999 352.943998,16.5000017 353.312,16.156 C353.680002,15.8119983 353.987999,15.3960024 354.236,14.908 C354.484001,14.4199976 354.648,13.8880029 354.728,13.312 C354.808,12.7359971 354.796001,12.2040024 354.692,11.716 C354.587999,11.2279976 354.396001,10.8120017 354.116,10.468 C353.835999,10.1239983 353.480002,9.852001 353.048,9.652 C352.615998,9.451999 352.112003,9.352 351.536,9.352 C350.959997,9.352 350.428002,9.451999 349.94,9.652 C349.451998,9.852001 349.020002,10.1239983 348.644,10.468 C348.267998,10.8120017 347.960001,11.2279976 347.72,11.716 C347.479999,12.2040024 347.32,12.7359971 347.24,13.312 L347.24,13.312 Z M344.936,13.312 C345.048001,12.4799958 345.311998,11.7040036 345.728,10.984 C346.144002,10.2639964 346.663997,9.63200272 347.288,9.088 C347.912003,8.54399728 348.611996,8.11600156 349.388,7.804 C350.164004,7.49199844 350.975996,7.336 351.824,7.336 C352.672004,7.336 353.439997,7.49199844 354.128,7.804 C354.816003,8.11600156 355.395998,8.54399728 355.868,9.088 C356.340002,9.63200272 356.679999,10.2639964 356.888,10.984 C357.096001,11.7040036 357.144001,12.4799958 357.032,13.312 C356.903999,14.1440042 356.636002,14.9239964 356.228,15.652 C355.819998,16.3800036 355.304003,17.0119973 354.68,17.548 C354.055997,18.0840027 353.356004,18.5079984 352.58,18.82 C351.803996,19.1320016 350.992004,19.288 350.144,19.288 C349.295996,19.288 348.524003,19.1320016 347.828,18.82 C347.131997,18.5079984 346.552002,18.0840027 346.088,17.548 C345.623998,17.0119973 345.284001,16.3800036 345.068,15.652 C344.851999,14.9239964 344.807999,14.1440042 344.936,13.312 L344.936,13.312 Z M371.352,19 L369.192,19 L369.408,17.368 L369.36,17.368 C368.847997,17.976003 368.208004,18.4479983 367.44,18.784 C366.671996,19.1200017 365.904004,19.288 365.136,19.288 C364.255996,19.288 363.480003,19.1360015 362.808,18.832 C362.135997,18.5279985 361.588002,18.1040027 361.164,17.56 C360.739998,17.0159973 360.440001,16.3840036 360.264,15.664 C360.087999,14.9439964 360.063999,14.1600042 360.192,13.312 C360.304001,12.4639958 360.551998,11.6760036 360.936,10.948 C361.320002,10.2199964 361.799997,9.58800268 362.376,9.052 C362.952003,8.51599732 363.615996,8.09600152 364.368,7.792 C365.120004,7.48799848 365.935996,7.336 366.816,7.336 C367.632004,7.336 368.371997,7.50799828 369.036,7.852 C369.700003,8.19600172 370.191998,8.66399704 370.512,9.256 L370.56,9.256 L371.736,0.856 L373.896,0.856 L371.352,19 Z M365.688,17.272 C366.264003,17.272 366.795998,17.172001 367.284,16.972 C367.772002,16.771999 368.199998,16.5000017 368.568,16.156 C368.936002,15.8119983 369.243999,15.3960024 369.492,14.908 C369.740001,14.4199976 369.904,13.8880029 369.984,13.312 C370.064,12.7359971 370.052001,12.2040024 369.948,11.716 C369.843999,11.2279976 369.652001,10.8120017 369.372,10.468 C369.091999,10.1239983 368.736002,9.852001 368.304,9.652 C367.871998,9.451999 367.368003,9.352 366.792,9.352 C366.215997,9.352 365.684002,9.451999 365.196,9.652 C364.707998,9.852001 364.276002,10.1239983 363.9,10.468 C363.523998,10.8120017 363.216001,11.2279976 362.976,11.716 C362.735999,12.2040024 362.576,12.7359971 362.496,13.312 C362.416,13.8880029 362.427999,14.4199976 362.532,14.908 C362.636001,15.3960024 362.823999,15.8119983 363.096,16.156 C363.368001,16.5000017 363.723998,16.771999 364.164,16.972 C364.604002,17.172001 365.111997,17.272 365.688,17.272 L365.688,17.272 Z M386.216,2.008 L388.52,2.008 L386.432,16.84 L394.232,16.84 L393.944,19 L386.144,19 L383.84,19 L386.216,2.008 Z M398.496,7.624 L400.656,7.624 L399.072,19 L396.912,19 L398.496,7.624 Z M398.568,3.544 C398.632,3.11199784 398.839998,2.74000156 399.192,2.428 C399.544002,2.11599844 399.935998,1.96 400.368,1.96 C400.800002,1.96 401.151999,2.11599844 401.424,2.428 C401.696001,2.74000156 401.8,3.11199784 401.736,3.544 C401.672,3.97600216 401.464002,4.34799844 401.112,4.66 C400.759998,4.97200156 400.368002,5.128 399.936,5.128 C399.503998,5.128 399.152001,4.97200156 398.88,4.66 C398.607999,4.34799844 398.504,3.97600216 398.568,3.544 L398.568,3.544 Z M405.664,9.496 L403.216,9.496 L403.48,7.624 L405.928,7.624 L406.288,5.08 C406.512001,3.5599924 406.963997,2.42800372 407.644,1.684 C408.324003,0.93999628 409.375993,0.568 410.8,0.568 C411.040001,0.568 411.291999,0.57599992 411.556,0.592 C411.820001,0.60800008 412.095999,0.6559996 412.384,0.736 L411.88,2.656 C411.687999,2.5759996 411.496001,2.52000016 411.304,2.488 C411.111999,2.45599984 410.904001,2.44 410.68,2.44 C410.279998,2.44 409.952001,2.4999994 409.696,2.62 C409.439999,2.7400006 409.232001,2.91199888 409.072,3.136 C408.911999,3.36000112 408.788,3.62799844 408.7,3.94 C408.612,4.25200156 408.536,4.607998 408.472,5.008 L408.112,7.624 L410.68,7.624 L410.416,9.496 L407.824,9.496 L406.504,19 L404.344,19 L405.664,9.496 Z M414.8,14.104 C414.736,14.6000025 414.783999,15.051998 414.944,15.46 C415.104001,15.868002 415.339998,16.2159986 415.652,16.504 C415.964002,16.7920014 416.339998,17.0159992 416.78,17.176 C417.220002,17.3360008 417.687998,17.416 418.184,17.416 C418.856003,17.416 419.459997,17.2600016 419.996,16.948 C420.532003,16.6359984 421.047998,16.2240026 421.544,15.712 L422.984,16.96 C421.575993,18.5120078 419.792011,19.288 417.632,19.288 C416.735996,19.288 415.948003,19.1360015 415.268,18.832 C414.587997,18.5279985 414.032002,18.1080027 413.6,17.572 C413.167998,17.0359973 412.864001,16.4040036 412.688,15.676 C412.511999,14.9479964 412.487999,14.1600042 412.616,13.312 C412.728001,12.4639958 412.983998,11.6760036 413.384,10.948 C413.784002,10.2199964 414.283997,9.58800268 414.884,9.052 C415.484003,8.51599732 416.163996,8.09600152 416.924,7.792 C417.684004,7.48799848 418.487996,7.336 419.336,7.336 C420.344005,7.336 421.171997,7.51199824 421.82,7.864 C422.468003,8.21600176 422.975998,8.67599716 423.344,9.244 C423.712002,9.81200284 423.944,10.4519964 424.04,11.164 C424.136,11.8760036 424.136,12.5999963 424.04,13.336 L423.92,14.104 L414.8,14.104 Z M421.856,12.376 C421.904,11.8959976 421.888,11.456002 421.808,11.056 C421.728,10.655998 421.576001,10.3080015 421.352,10.012 C421.127999,9.71599852 420.824002,9.48400084 420.44,9.316 C420.055998,9.14799916 419.592003,9.064 419.048,9.064 C418.519997,9.064 418.024002,9.163999 417.56,9.364 C417.095998,9.564001 416.684002,9.8239984 416.324,10.144 C415.963998,10.4640016 415.672001,10.819998 415.448,11.212 C415.223999,11.604002 415.088,11.9919981 415.04,12.376 L421.856,12.376 Z" id="Logo"></path>
            </g>
        </g>
    </g>
</svg>