<?xml version="1.0" encoding="UTF-8"?>
<svg width="34px" height="34px" viewBox="0 0 34 34" version="1.1" xmlns="http://www.w3.org/2000/svg" xmlns:xlink="http://www.w3.org/1999/xlink">
    <title>RSS</title>
    <g id="Symbols" stroke="none" stroke-width="1" fill="none" fill-rule="evenodd">
        <g id="RSS" transform="translate(1.000000, 1.000000)">
            <circle id="Stroke" stroke="#A78F79" stroke-width="2" cx="16" cy="16" r="16"></circle>
            <path d="M13.2563739,18.878187 C13.2563739,18.2535411 12.7464589,17.7436261 12.121813,17.7436261 C11.509915,17.7436261 11,18.266289 11,18.878187 C11,19.490085 11.509915,20 12.121813,20 C12.733711,20 13.2563739,19.490085 13.2563739,18.878187 L13.2563739,18.878187 Z M16.9405099,20 C16.9405099,16.723796 14.276204,14.0594901 11,14.0594901 L11,15.7804533 C13.3201133,15.7804533 15.2067989,17.6798867 15.2067989,20 L16.9405099,20 Z M20,20 C20,15.0410765 15.9589235,11.0127479 11,11 L11,12.7209632 C15.0155807,12.733711 18.2535411,15.9844193 18.266289,20 L20,20 Z" fill="#A78F79"></path>
        </g>
    </g>
</svg>