<?xml version="1.0" encoding="UTF-8"?>
<svg width="67px" height="9px" viewBox="0 0 67 9" version="1.1" xmlns="http://www.w3.org/2000/svg" xmlns:xlink="http://www.w3.org/1999/xlink">
    <title>Food Blog</title>
    <g id="Food-Blog" stroke="none" stroke-width="1" fill="none" fill-rule="evenodd">
        <g id="04-The-Good-Life---Post-Details" transform="translate(-674.000000, -2568.000000)">
            <g id="Text" transform="translate(110.000000, 1522.000000)"></g>
            <g id="Share" transform="translate(110.000000, 2563.800000)" fill="#B7A698">
                <path d="M574.338583,5.60709178 C574.338583,5.60709178 574.338583,5.50658522 574.338583,5.60709178 C573.826772,5.104559 573.212598,4.90354589 572.598425,5.00405244 L572.598425,5.00405244 L572.598425,5.00405244 C573.212598,4.90354589 573.519685,4.70253278 573.622047,4.60202622 C573.622047,4.50151967 573.622047,4.40101311 573.519685,4.40101311 C573.212598,4.40101311 572.905512,4.50151967 572.700787,4.60202622 C573.007874,4.40101311 573.110236,4.30050656 573.110236,4.2 C572.80315,4.2 572.496063,4.40101311 572.086614,4.70253278 C572.188976,4.50151967 572.291339,4.40101311 572.188976,4.30050656 C571.984252,4.40101311 571.88189,4.50151967 571.779528,4.70253278 C571.472441,5.00405244 571.267717,5.20506555 571.165354,5.50658522 L571.165354,5.50658522 C570.755906,6.21013111 570.448819,6.81317044 570.244094,7.51671633 L570.141732,7.51671633 C569.937008,7.21519666 569.629921,6.913677 569.220472,6.71266389 C568.811024,6.41114422 568.299213,6.21013111 567.685039,5.90861144 C567.070866,5.60709178 566.456693,5.30557211 565.740157,5.104559 C565.740157,5.80810489 566.047244,6.41114422 566.76378,6.81317044 L566.76378,6.81317044 C566.559055,6.81317044 566.251969,6.81317044 566.047244,6.913677 C566.047244,7.51671633 566.559055,8.01924911 567.480315,8.22026222 L567.480315,8.22026222 C567.173228,8.22026222 566.866142,8.32076877 566.559055,8.52178189 C566.866142,9.12482122 567.377953,9.32583433 568.19685,9.32583433 C568.094488,9.42634088 567.889764,9.52684744 567.889764,9.52684744 C567.787402,9.627354 567.685039,9.82836711 567.787402,10.0293802 C567.992126,10.3308999 568.19685,10.4314064 568.708661,10.4314064 L568.708661,10.4314064 L568.708661,10.4314064 C567.992126,11.1349523 567.070866,11.5369785 566.047244,11.436472 L566.047244,11.436472 C565.433071,11.436472 564.716535,11.1349523 564,10.531913 C564.716535,11.5369785 565.740157,12.341031 566.968504,12.8435638 C568.401575,13.24559 569.834646,13.3460965 571.165354,12.9440703 L571.165354,12.9440703 C572.496063,12.5420441 573.724409,11.7379917 574.645669,10.6324196 C575.055118,10.0293802 575.362205,9.42634088 575.464567,8.82330155 C576.181102,8.82330155 576.692913,8.62228844 577,8.22026222 L577,8.22026222 C576.795276,8.32076877 576.283465,8.32076877 575.566929,8.11975566 L575.566929,8.11975566 L575.566929,8.11975566 C576.283465,8.01924911 576.795276,7.818236 576.897638,7.41620978 C576.385827,7.61722289 575.874016,7.61722289 575.362205,7.41620978 C575.259843,6.71266389 574.952756,6.10962455 574.338583,5.60709178 L574.338583,5.60709178 Z" id="Twitter-Icon"></path>
                <text id="TWEET" font-family="Montserrat-Bold, Montserrat" font-size="10" font-weight="bold" letter-spacing="1.79999995">
                    <tspan x="587" y="13.2">TWEET</tspan>
                </text>
            </g>
        </g>
    </g>
</svg>