<?xml version="1.0" encoding="UTF-8"?>
<svg width="34px" height="34px" viewBox="0 0 34 34" version="1.1" xmlns="http://www.w3.org/2000/svg" xmlns:xlink="http://www.w3.org/1999/xlink">
    <title>Twitter</title>
    <g id="Symbols" stroke="none" stroke-width="1" fill="none" fill-rule="evenodd">
        <g id="Twitter" transform="translate(1.000000, 1.000000)">
            <circle id="Stroke" stroke="#A78F79" stroke-width="2" cx="16" cy="16" r="16"></circle>
            <path d="M19.1,13.4453602 C19.1,13.4453602 19.1,13.3453602 19.1,13.4453602 C18.6,12.9453602 18,12.7453602 17.4,12.8453602 L17.4,12.8453602 L17.4,12.8453602 C18,12.7453602 18.3,12.5453602 18.4,12.4453602 C18.4,12.3453602 18.4,12.2453602 18.3,12.2453602 C18,12.2453602 17.7,12.3453602 17.5,12.4453602 C17.8,12.2453602 17.9,12.1453602 17.9,12.0453602 C17.6,12.0453602 17.3,12.2453602 16.9,12.5453602 C17,12.3453602 17.1,12.2453602 17,12.1453602 C16.8,12.2453602 16.7,12.3453602 16.6,12.5453602 C16.3,12.8453602 16.1,13.0453602 16,13.3453602 L16,13.3453602 C15.6,14.0453602 15.3,14.6453602 15.1,15.3453602 L15,15.3453602 C14.8,15.0453602 14.5,14.7453602 14.1,14.5453602 C13.7,14.2453602 13.2,14.0453602 12.6,13.7453602 C12,13.4453602 11.4,13.1453602 10.7,12.9453602 C10.7,13.6453602 11,14.2453602 11.7,14.6453602 L11.7,14.6453602 C11.5,14.6453602 11.2,14.6453602 11,14.7453602 C11,15.3453602 11.5,15.8453602 12.4,16.0453602 L12.4,16.0453602 C12.1,16.0453602 11.8,16.1453602 11.5,16.3453602 C11.8,16.9453602 12.3,17.1453602 13.1,17.1453602 C13,17.2453602 12.8,17.3453602 12.8,17.3453602 C12.7,17.4453602 12.6,17.6453602 12.7,17.8453602 C12.9,18.1453602 13.1,18.2453602 13.6,18.2453602 L13.6,18.2453602 L13.6,18.2453602 C12.9,18.9453602 12,19.3453602 11,19.2453602 L11,19.2453602 C10.4,19.2453602 9.7,18.9453602 9,18.3453602 C9.7,19.3453602 10.7,20.1453602 11.9,20.6453602 C13.3,21.0453602 14.7,21.1453602 16,20.7453602 L16,20.7453602 C17.3,20.3453602 18.5,19.5453602 19.4,18.4453602 C19.8,17.8453602 20.1,17.2453602 20.2,16.6453602 C20.9,16.6453602 21.4,16.4453602 21.7,16.0453602 L21.7,16.0453602 C21.5,16.1453602 21,16.1453602 20.3,15.9453602 L20.3,15.9453602 L20.3,15.9453602 C21,15.8453602 21.5,15.6453602 21.6,15.2453602 C21.1,15.4453602 20.6,15.4453602 20.1,15.2453602 C20,14.5453602 19.7,13.9453602 19.1,13.4453602 L19.1,13.4453602 Z" fill="#A78F79"></path>
        </g>
    </g>
</svg>